<?xml version="1.0" ?><svg enable-background="new 0 0 32 32" height="32px" id="svg2" version="1.1" viewBox="0 0 32 32" width="32px" xml:space="preserve" xmlns="http://www.w3.org/2000/svg" xmlns:cc="http://creativecommons.org/ns#" xmlns:dc="http://purl.org/dc/elements/1.1/" xmlns:inkscape="http://www.inkscape.org/namespaces/inkscape" xmlns:rdf="http://www.w3.org/1999/02/22-rdf-syntax-ns#" xmlns:sodipodi="http://sodipodi.sourceforge.net/DTD/sodipodi-0.dtd" xmlns:svg="http://www.w3.org/2000/svg"><g id="background"><rect fill="none" height="32" width="32"/></g><g id="imprint"><rect height="2" width="10" x="4" y="14"/><rect height="2" width="10" x="4" y="18"/><rect height="2" width="6" x="4" y="22"/><path d="M0,6v26h32V6H0z M30,30H2l0.08-20H30V30z"/><g><g><path d="M20,20c2.209,0,4-1.791,4-4s-1.791-4-4-4s-4,1.791-4,4S17.791,20,20,20z M26,22H14c0,0-2,0-2,2v4h16v-4     C28,24,28,22,26,22z"/></g></g></g></svg>